<?xml version="1.0" encoding="utf-8"?>
<!-- Generator: Adobe Illustrator 23.1.0, SVG Export Plug-In . SVG Version: 6.00 Build 0)  -->
<svg version="1.1" id="Слой_1" xmlns="http://www.w3.org/2000/svg" xmlns:xlink="http://www.w3.org/1999/xlink" x="0px" y="0px"
	 width="550px" height="500px" viewBox="0 0 550 500" enable-background="new 0 0 550 500" xml:space="preserve">
<path fill="#070707" d="M249.7,17.5c8-23.4,42.7-23.4,50.7,0L347,154.1c3.6,10.5,13.8,17.5,25.3,17.5h150.9
	c25.8,0,36.6,31.5,15.6,46l-122,84.2c-9.4,6.5-13.3,18-9.7,28.4l46.6,136.4c8,23.4-20.1,42.9-41,28.4l-122.2-84.4
	c-9.3-6.4-22-6.4-31.3,0l-122.2,84.4c-20.9,14.4-49-5-41-28.4l46.6-136.4c3.6-10.5-0.3-22-9.7-28.4l-122-84.2
	c-20.9-14.5-10.2-46,15.6-46h150.9c11.5,0,21.8-7.1,25.3-17.5L249.7,17.5z"/>
</svg>
