<?xml version="1.0" encoding="utf-8"?>
<!-- Generator: Adobe Illustrator 23.1.0, SVG Export Plug-In . SVG Version: 6.00 Build 0)  -->
<svg version="1.1" id="Слой_1" xmlns="http://www.w3.org/2000/svg" xmlns:xlink="http://www.w3.org/1999/xlink" x="0px" y="0px"
	 viewBox="0 0 550 550" style="enable-background:new 0 0 550 550;" xml:space="preserve">
<style type="text/css">
	.st0{fill:#E5E5E5;}
</style>
<path class="st0" d="M251,42.4c7.6-23.4,40.7-23.4,48.3,0l44.5,136.5c3.4,10.5,13.2,17.5,24.2,17.5h143.8c24.6,0,34.9,31.5,14.9,46
	l-116.2,84.2c-8.9,6.5-12.7,18-9.3,28.4l44.4,136.4c7.6,23.4-19.1,42.9-39.1,28.4l-116.5-84.4c-8.9-6.4-20.9-6.4-29.8,0l-116.5,84.4
	c-19.9,14.4-46.7-5-39.1-28.4l44.4-136.4c3.4-10.5-0.3-22-9.3-28.4L23.6,242.5c-19.9-14.5-9.7-46,14.9-46h143.8
	c11,0,20.7-7.1,24.2-17.5L251,42.4z"/>
</svg>
